<?xml version="1.0" encoding="UTF-8" standalone="no"?>
<svg
   version="1.0"
   width="1280.000000pt"
   height="1280.000000pt"
   viewBox="0 0 1280.000000 1280.000000"
   preserveAspectRatio="xMidYMid meet"
   id="svg8"
   sodipodi:docname="foice e martelo 2 vermelho.svg"
   inkscape:version="1.1 (c4e8f9ed74, 2021-05-24)"
   xmlns:inkscape="http://www.inkscape.org/namespaces/inkscape"
   xmlns:sodipodi="http://sodipodi.sourceforge.net/DTD/sodipodi-0.dtd"
   xmlns="http://www.w3.org/2000/svg"
   xmlns:svg="http://www.w3.org/2000/svg">
  <defs
     id="defs12" />
  <sodipodi:namedview
     id="namedview10"
     pagecolor="#ffffff"
     bordercolor="#666666"
     borderopacity="1.0"
     inkscape:pageshadow="2"
     inkscape:pageopacity="0.0"
     inkscape:pagecheckerboard="0"
     inkscape:document-units="pt"
     showgrid="false"
     inkscape:zoom="0.45410156"
     inkscape:cx="1208.9806"
     inkscape:cy="852.23226"
     inkscape:window-width="1920"
     inkscape:window-height="1056"
     inkscape:window-x="0"
     inkscape:window-y="0"
     inkscape:window-maximized="1"
     inkscape:current-layer="svg8" />
  <metadata
     id="metadata2">
Created by potrace 1.15, written by Peter Selinger 2001-2017
</metadata>
  <g
     id="g472"
     transform="matrix(5.7107039,0,0,5.7107039,2215.1983,-2147.2616)"
     style="fill:#ff0000">
    <path
       style="fill:#ff0000;fill-opacity:1"
       d="m -283.96948,399.15206 c 0.72187,-0.28888 1.58437,-0.25335 1.91667,0.079 0.33229,0.33229 -0.25834,0.56864 -1.3125,0.52522 -1.16495,-0.048 -1.4019,-0.28495 -0.60417,-0.60417 z"
       id="path488" />
    <path
       style="fill:#ff0000;fill-opacity:1"
       d="m -314.78198,470.33517 c 8.51169,-8.525 15.7008,-15.5 15.9758,-15.5 0.275,0 -6.46411,6.975 -14.9758,15.5 -8.51169,8.525 -15.7008,15.5 -15.9758,15.5 -0.275,0 6.46411,-6.975 14.9758,-15.5 z m 48,-48 c 10.16385,-10.175 18.70473,-18.5 18.97973,-18.5 0.275,0 -7.81588,8.325 -17.97973,18.5 -10.16385,10.175 -18.70473,18.5 -18.97973,18.5 -0.275,0 7.81588,-8.325 17.97973,-18.5 z m 43.87244,-26.25 c -1.24387,-1.58606 -1.2085,-1.62143 0.37756,-0.37755 1.66575,1.30636 2.19548,2.12755 1.37244,2.12755 -0.20765,0 -0.99515,-0.7875 -1.75,-1.75 z"
       id="path486" />
    <path
       style="fill:#ff0000;fill-opacity:1"
       d="m -337.31328,479.58517 -5.9687,-6.25 6.25,5.9687 c 5.80572,5.54441 6.7076,6.5313 5.9687,6.5313 -0.15472,0 -2.96722,-2.8125 -6.25,-6.25 z m -13.49759,-13.5 -6.47111,-6.75 6.75,6.47111 c 6.26969,6.01065 7.20713,7.02889 6.47111,7.02889 -0.15339,0 -3.19089,-3.0375 -6.75,-6.75 z m 159.43388,-58.5 -1.90499,-2.25 2.25,1.90499 c 2.11444,1.79022 2.70524,2.59501 1.90499,2.59501 -0.18976,0 -1.20226,-1.0125 -2.25,-2.25 z"
       id="path484" />
    <path
       style="fill:#ff0000;fill-opacity:1"
       d="m -364.78198,584.33517 c 2.98742,-3.025 5.65668,-5.5 5.93168,-5.5 0.275,0 -1.94426,2.475 -4.93168,5.5 -2.98742,3.025 -5.65668,5.5 -5.93168,5.5 -0.275,0 1.94426,-2.475 4.93168,-5.5 z m 11.95821,-11.75 c 4.14396,-4.41519 5.04179,-5.20909 5.04179,-4.45821 0,0.16049 -2.1375,2.29799 -4.75,4.75 l -4.75,4.45821 z m 33.12074,-3.33333 c 0.048,-1.16495 0.28494,-1.4019 0.60416,-0.60417 0.28888,0.72187 0.25335,1.58437 -0.079,1.91667 -0.33229,0.33229 -0.56864,-0.25834 -0.52522,-1.3125 z m 127.89216,-7.16667 -6.47111,-6.75 6.75,6.47111 c 6.26969,6.01065 7.20713,7.02889 6.47111,7.02889 -0.15339,0 -3.19089,-3.0375 -6.75,-6.75 z m -11.02494,-11 -3.44617,-3.75 3.75,3.44617 c 3.49042,3.20761 4.20979,4.05383 3.44617,4.05383 -0.16711,0 -1.85461,-1.6875 -3.75,-3.75 z m -33.94617,-33.75 c -2.42903,-2.475 -4.19142,-4.5 -3.91642,-4.5 0.275,0 2.48739,2.025 4.91642,4.5 2.42903,2.475 4.19142,4.5 3.91642,4.5 -0.275,0 -2.48739,-2.025 -4.91642,-4.5 z m -12.02889,-12.25 -6.47111,-6.75 6.75,6.47111 c 6.26969,6.01065 7.20713,7.02889 6.47111,7.02889 -0.15339,0 -3.19089,-3.0375 -6.75,-6.75 z m -14,-14 -6.47111,-6.75 6.75,6.47111 c 6.26969,6.01065 7.20713,7.02889 6.47111,7.02889 -0.15339,0 -3.19089,-3.0375 -6.75,-6.75 z m -14,-14 -6.47111,-6.75 6.75,6.47111 c 6.26969,6.01065 7.20713,7.02889 6.47111,7.02889 -0.15339,0 -3.19089,-3.0375 -6.75,-6.75 z m -14,-14 -6.47111,-6.75 6.75,6.47111 c 3.7125,3.55911 6.75,6.59661 6.75,6.75 0,0.73602 -1.01824,-0.20142 -7.02889,-6.47111 z"
       id="path482" />
    <path
       style="fill:#ff0000;fill-opacity:1"
       d="m -341.31957,570.58517 -4.96241,-5.25 5.25,4.96241 c 2.8875,2.72932 5.25,5.09182 5.25,5.25 0,0.74619 -0.92643,-0.084 -5.53759,-4.96241 z m -26,-26 -4.96241,-5.25 5.25,4.96241 c 2.8875,2.72932 5.25,5.09182 5.25,5.25 0,0.74619 -0.92643,-0.084 -5.53759,-4.96241 z m 92.78759,-10.43933 c 0.9625,-0.25152 2.5375,-0.25152 3.5,0 0.9625,0.25153 0.175,0.45733 -1.75,0.45733 -1.925,0 -2.7125,-0.2058 -1.75,-0.45733 z m 108.82895,-67.894 c 0.048,-1.16495 0.28494,-1.4019 0.60416,-0.60417 0.28887,0.72187 0.25335,1.58437 -0.0789,1.91667 -0.3323,0.33229 -0.56864,-0.25834 -0.52522,-1.3125 z"
       id="path480" />
    <path
       style="fill:#ff0000;fill-opacity:1"
       d="m -165.54998,470.83517 c 0,-1.925 0.2058,-2.7125 0.45733,-1.75 0.25152,0.9625 0.25152,2.5375 0,3.5 -0.25153,0.9625 -0.45733,0.175 -0.45733,-1.75 z"
       id="path478" />
    <path
       style="fill:#ff0000;fill-opacity:1"
       d="m -374.28198,562.83517 c 6.58281,-6.6 12.19374,-12 12.46874,-12 0.275,0 -4.88593,5.4 -11.46874,12 -6.5828,6.6 -12.19374,12 -12.46874,12 -0.275,0 4.88594,-5.4 11.46874,-12 z m 118.3125,1.31689 c 0.72187,-0.28887 1.58437,-0.25335 1.91667,0.0789 0.33229,0.33229 -0.25834,0.56864 -1.3125,0.52522 -1.16495,-0.048 -1.4019,-0.28494 -0.60417,-0.60416 z m -93.40799,-28.4714 c -0.46381,-0.75045 -0.27178,-0.88149 0.54868,-0.37442 0.83844,0.51819 5.00307,-2.87123 12.40451,-10.09549 l 11.1423,-10.87558 -10.98295,11.25 c -6.04062,6.1875 -11.30156,11.25 -11.69098,11.25 -0.38942,0 -1.02912,-0.51953 -1.42156,-1.15451 z"
       id="path476" />
    <path
       style="fill:#ff0000;fill-opacity:1"
       d="m -380.49785,592.12968 c -3.7083,-0.71069 -7.28413,-5.88402 -7.28413,-10.53831 0,-3.90411 0.59191,-4.68812 13,-17.21898 7.15,-7.22074 13,-13.51984 13,-13.99799 0,-0.47815 -2.7,-3.68114 -6,-7.11775 -5.10442,-5.31572 -6,-6.7952 -6,-9.91185 0,-2.71577 0.75617,-4.41965 2.92308,-6.58655 5.07992,-5.07992 11.10797,-3.23895 19.09119,5.83047 l 4.07214,4.6262 10.72313,-10.68988 c 5.89771,-5.87943 11.05223,-10.68987 11.45448,-10.68987 0.40224,0 2.86989,1.5229 5.48367,3.38422 16.12517,11.48305 38.97875,17.32305 57.57693,14.71318 9.21421,-1.29303 21.15292,-5.12087 27.41209,-8.78899 l 4.45642,-2.61163 -34.09161,-34.09161 -34.09162,-34.09162 -15.76733,15.74424 -15.76734,15.74424 -13.74228,-13.76864 -13.74228,-13.76863 29.9197,-29.85866 29.91971,-29.85867 4.33496,0.58953 c 2.38423,0.32424 13.10996,1.09553 23.83496,1.71399 10.725,0.61845 20.15081,1.32976 20.94625,1.58068 0.94149,0.29699 -5.16363,7.07298 -17.49235,19.41451 l -18.93859,18.9583 34.48691,34.49778 c 18.9678,18.97378 34.75127,34.49778 35.07438,34.49778 1.42347,0 9.53892,-12.20387 12.96729,-19.5 5.63489,-11.99193 7.31928,-21.1426 6.69569,-36.37509 -0.89992,-21.9825 -8.42741,-39.22823 -24.59948,-56.35822 -4.46624,-4.73078 -5.19939,-5.99032 -4.19283,-7.20315 1.06354,-1.28149 2.04104,-1.17178 7.62785,0.85612 20.00704,7.26217 38.05913,26.18651 46.15418,48.38428 10.72523,29.41013 5.46661,61.88539 -14.26089,88.06986 l -5.55546,7.3738 11.54352,11.79217 c 7.63557,7.80003 11.58251,12.58234 11.65868,14.1262 0.24082,4.88093 -0.3121,6.41871 -3.30522,9.19259 -2.5804,2.3914 -3.66773,2.76392 -6.65327,2.27944 -2.89258,-0.4694 -5.87898,-2.88379 -15.76142,-12.74251 l -12.19264,-12.16337 -6.08963,3.69925 c -14.00351,8.50669 -29.68973,12.76103 -47.11297,12.77776 -21.85414,0.021 -39.97408,-6.10629 -55.53165,-18.77811 -2.99205,-2.43706 -5.79932,-4.43102 -6.23838,-4.43102 -0.43906,0 -3.24177,2.47422 -6.22825,5.49826 l -5.42996,5.49826 4.56758,4.75174 c 6.11247,6.35891 7.86066,9.14778 7.86066,12.53999 0,4.16667 -1.71322,6.69398 -5.65389,8.3405 -4.78947,2.00116 -6.8622,1.12651 -14.08661,-5.94432 l -6.24051,-6.10783 -13.34242,13.2117 c -7.33833,7.26644 -14.0558,13.2117 -14.9277,13.2117 -0.87191,0 -2.1846,0.16182 -2.91708,0.35959 -0.73249,0.19777 -2.32893,0.16849 -3.54766,-0.0651 z"
       id="path474" />
  </g>
</svg>
